<svg width="153" height="50" viewBox="0 0 153 50" fill="none" xmlns="http://www.w3.org/2000/svg">
<ellipse cx="36.8359" cy="2.31464" rx="2.30225" ry="2.31464" fill="white"/>
<path d="M7.19406 38.8897C5.89007 38.8897 4.68553 38.5675 3.58045 37.9231C2.47538 37.2787 1.60236 36.401 0.961418 35.29C0.320473 34.1567 0 32.9346 0 31.6236V26.8573C0 25.5462 0.320473 24.3352 0.961418 23.2242C1.60236 22.0909 2.47538 21.2021 3.58045 20.5577C4.68553 19.9133 5.89007 19.5911 7.19406 19.5911C8.49805 19.5911 9.70259 19.9133 10.8077 20.5577C11.9127 21.2021 12.7858 22.0909 13.4267 23.2242C14.0676 24.3352 14.3881 25.5462 14.3881 26.8573V29.1238C14.3881 29.4571 14.2666 29.7459 14.0234 29.9904C13.8024 30.2126 13.5262 30.3237 13.1946 30.3237H2.58588V31.7902C2.58588 32.6346 2.7848 33.4123 3.18263 34.1234C3.60256 34.8345 4.16615 35.4011 4.8734 35.8233C5.58065 36.2232 6.3542 36.4232 7.19406 36.4232H12.0012C12.1338 36.4232 12.2443 36.4677 12.3327 36.5566C12.4211 36.6454 12.4653 36.7565 12.4653 36.8899V38.4231C12.4653 38.5564 12.4211 38.6675 12.3327 38.7564C12.2443 38.8453 12.1338 38.8897 12.0012 38.8897H7.19406ZM11.8022 27.9239V26.6906C11.8022 25.8462 11.5923 25.0685 11.1723 24.3574C10.7745 23.6464 10.222 23.0909 9.51473 22.6909C8.80748 22.2687 8.03392 22.0576 7.19406 22.0576C6.3542 22.0576 5.58065 22.2687 4.8734 22.6909C4.16615 23.0909 3.60256 23.6464 3.18263 24.3574C2.7848 25.0685 2.58588 25.8462 2.58588 26.6906V27.9239H11.8022Z" fill="white"/>
<path d="M25.648 39.323C24.344 39.323 23.1395 39.0008 22.0344 38.3564C20.9293 37.712 20.0563 36.8343 19.4154 35.7233C18.7744 34.59 18.4539 33.3679 18.4539 32.0569V26.8573C18.4539 25.5462 18.7744 24.3352 19.4154 23.2242C20.0563 22.0909 20.9293 21.2021 22.0344 20.5577C23.1395 19.9133 24.344 19.5911 25.648 19.5911C26.5984 19.5911 27.4935 19.7689 28.3333 20.1244C29.1953 20.4799 29.9468 20.9688 30.5877 21.591C30.7203 21.7243 30.7866 21.8798 30.7866 22.0576C30.7866 22.2132 30.7203 22.3798 30.5877 22.5576C30.3667 22.802 30.1125 23.0575 29.8252 23.3242C29.6705 23.4575 29.5047 23.5242 29.3279 23.5242C29.129 23.5242 28.9522 23.4464 28.7975 23.2909C27.9134 22.4687 26.8636 22.0576 25.648 22.0576C24.8081 22.0576 24.0346 22.2687 23.3273 22.6909C22.6201 23.0909 22.0565 23.6464 21.6366 24.3574C21.2387 25.0685 21.0398 25.8462 21.0398 26.6906V32.2235C21.0398 33.0679 21.2387 33.8456 21.6366 34.5567C22.0565 35.2678 22.6201 35.8344 23.3273 36.2566C24.0346 36.6566 24.8081 36.8565 25.648 36.8565C26.8636 36.8565 27.9134 36.4455 28.7975 35.6233C28.9522 35.4677 29.129 35.39 29.3279 35.39C29.5047 35.39 29.6705 35.4566 29.8252 35.59C30.0904 35.8122 30.3446 36.0677 30.5877 36.3566C30.7203 36.4899 30.7866 36.6566 30.7866 36.8565C30.7866 37.0343 30.7203 37.1899 30.5877 37.3232C29.9468 37.9453 29.1953 38.4342 28.3333 38.7897C27.4935 39.1453 26.5984 39.323 25.648 39.323Z" fill="white"/>
<path d="M36.0641 38.8897C35.9315 38.8897 35.8209 38.8453 35.7325 38.7564C35.6441 38.6675 35.5999 38.5564 35.5999 38.4231V4.17006C35.5999 4.03674 35.6441 3.92563 35.7325 3.83675C35.8209 3.74787 35.9315 3.70343 36.0641 3.70343H37.7217C37.8543 3.70343 37.9648 3.74787 38.0532 3.83675C38.1416 3.92563 38.1858 4.03674 38.1858 4.17006V22.3576C38.7605 21.4465 39.5009 20.7577 40.407 20.2911C41.3353 19.8244 42.3741 19.5911 43.5233 19.5911C45.402 19.5911 46.9159 20.1689 48.0652 21.3243C49.2366 22.4798 49.8223 24.0019 49.8223 25.8907V38.4231C49.8223 38.5564 49.7781 38.6675 49.6897 38.7564C49.6013 38.8453 49.4908 38.8897 49.3582 38.8897H47.7005C47.5679 38.8897 47.4574 38.8453 47.369 38.7564C47.2806 38.6675 47.2364 38.5564 47.2364 38.4231V26.3906C47.2364 24.9685 46.8607 23.8908 46.1092 23.1575C45.3799 22.402 44.3853 22.0243 43.1255 22.0243C41.6447 22.0243 40.4512 22.5131 39.5451 23.4908C38.6389 24.4685 38.1858 25.8129 38.1858 27.5239V38.4231C38.1858 38.5564 38.1416 38.6675 38.0532 38.7564C37.9648 38.8453 37.8543 38.8897 37.7217 38.8897H36.0641Z" fill="white"/>
<path d="M65.7938 30.0941C65.7938 32.5403 65.0404 34.6605 63.9403 36.1142C62.8412 37.5664 61.5075 38.2414 60.236 38.2414C58.9645 38.2414 57.6307 37.5664 56.5317 36.1142C55.4315 34.6605 54.6781 32.5403 54.6781 30.0941C54.6781 27.6478 55.4315 25.5276 56.5317 24.0739C57.6307 22.6217 58.9645 21.9467 60.236 21.9467C61.5075 21.9467 62.8412 22.6217 63.9403 24.0739C65.0404 25.5276 65.7938 27.6478 65.7938 30.0941Z" stroke="white" stroke-opacity="0.81" stroke-width="5"/>
<path d="M83.7514 28.4738C83.7514 36.5327 78.7579 41.9449 73.8192 41.9449C68.8806 41.9449 63.8871 36.5327 63.8871 28.4738C63.8871 20.415 68.8806 15.0028 73.8192 15.0028C78.7579 15.0028 83.7514 20.415 83.7514 28.4738Z" stroke="#EAEAEA" stroke-opacity="0.74" stroke-width="5"/>
<path d="M100.328 28.2424C100.328 33.8259 98.8144 38.7677 96.4992 42.2407C94.1724 45.7311 91.2326 47.5 88.3234 47.5C85.4142 47.5 82.4744 45.7311 80.1476 42.2407C77.8324 38.7677 76.3192 33.8259 76.3192 28.2424C76.3192 22.6588 77.8324 17.717 80.1476 14.2441C82.4744 10.7536 85.4142 8.98471 88.3234 8.98471C91.2326 8.98471 94.1724 10.7536 96.4992 14.2441C98.8144 17.717 100.328 22.6588 100.328 28.2424Z" stroke="#848484" stroke-opacity="0.61" stroke-width="5"/>
<path d="M36.8359 0.49021C37.2964 0.25875 38.7308 1.56114 38.2173 2.07741C37.7038 2.59368 37.8679 1.05005 36.8359 0.49021Z" fill="#D9D9D9"/>
<path d="M105.447 39.4637C105.314 39.4637 105.203 39.4193 105.115 39.3304C105.027 39.2415 104.982 39.1304 104.982 38.9971V21.0984C104.982 20.9651 105.027 20.854 105.115 20.7651C105.203 20.6763 105.314 20.6318 105.447 20.6318H107.104C107.237 20.6318 107.347 20.6763 107.436 20.7651C107.524 20.854 107.568 20.9651 107.568 21.0984V22.9316C108.143 22.0206 108.883 21.3318 109.79 20.8651C110.718 20.3985 111.757 20.1652 112.906 20.1652C114.784 20.1652 116.298 20.7429 117.448 21.8984C118.619 23.0539 119.205 24.576 119.205 26.4647V38.9971C119.205 39.1304 119.161 39.2415 119.072 39.3304C118.984 39.4193 118.873 39.4637 118.741 39.4637H117.083C116.95 39.4637 116.84 39.4193 116.752 39.3304C116.663 39.2415 116.619 39.1304 116.619 38.9971V26.9647C116.619 25.5426 116.243 24.4649 115.492 23.7316C114.762 22.9761 113.768 22.5983 112.508 22.5983C111.027 22.5983 109.834 23.0872 108.928 24.0649C108.021 25.0426 107.568 26.3869 107.568 28.0979V38.9971C107.568 39.1304 107.524 39.2415 107.436 39.3304C107.347 39.4193 107.237 39.4637 107.104 39.4637H105.447Z" fill="white"/>
<path d="M131.194 39.4971C129.89 39.4971 128.685 39.1749 127.58 38.5305C126.475 37.8861 125.602 37.0084 124.961 35.8973C124.32 34.7641 124 33.542 124 32.231V27.4646C124 26.1536 124.32 24.9426 124.961 23.8316C125.602 22.6983 126.475 21.8095 127.58 21.1651C128.685 20.5207 129.89 20.1985 131.194 20.1985C132.498 20.1985 133.702 20.5207 134.807 21.1651C135.912 21.8095 136.785 22.6983 137.426 23.8316C138.067 24.9426 138.388 26.1536 138.388 27.4646V29.7311C138.388 30.0644 138.266 30.3533 138.023 30.5977C137.802 30.8199 137.526 30.931 137.194 30.931H126.586V32.3976C126.586 33.242 126.785 34.0197 127.182 34.7308C127.602 35.4418 128.166 36.0084 128.873 36.4306C129.58 36.8306 130.354 37.0306 131.194 37.0306H136.001C136.133 37.0306 136.244 37.075 136.332 37.1639C136.421 37.2528 136.465 37.3639 136.465 37.4972V39.0304C136.465 39.1638 136.421 39.2749 136.332 39.3638C136.244 39.4526 136.133 39.4971 136.001 39.4971H131.194ZM135.802 28.5312V27.298C135.802 26.4536 135.592 25.6759 135.172 24.9648C134.774 24.2538 134.222 23.6982 133.514 23.2983C132.807 22.8761 132.034 22.665 131.194 22.665C130.354 22.665 129.58 22.8761 128.873 23.2983C128.166 23.6982 127.602 24.2538 127.182 24.9648C126.785 25.6759 126.586 26.4536 126.586 27.298V28.5312H135.802Z" fill="white"/>
<path d="M149.221 39.4971C147.629 39.4971 146.381 39.0193 145.474 38.0639C144.568 37.0861 144.115 35.864 144.115 34.3975V23.065H141.927C141.795 23.065 141.684 23.0205 141.596 22.9316C141.507 22.8428 141.463 22.7317 141.463 22.5983V21.0984C141.463 20.9651 141.507 20.854 141.596 20.7651C141.684 20.6763 141.795 20.6318 141.927 20.6318H144.115V17.1321C144.115 16.9987 144.159 16.8876 144.248 16.7988C144.336 16.7099 144.447 16.6654 144.579 16.6654H146.237C146.37 16.6654 146.48 16.7099 146.568 16.7988C146.657 16.8876 146.701 16.9987 146.701 17.1321V20.6318H152.536C152.668 20.6318 152.779 20.6763 152.867 20.7651C152.956 20.854 153 20.9651 153 21.0984V22.6317C153 22.765 152.956 22.8761 152.867 22.965C152.779 23.0539 152.668 23.0983 152.536 23.0983H146.701V34.0975C146.701 34.9641 146.955 35.664 147.464 36.1973C147.994 36.7084 148.679 36.975 149.519 36.9973L152.536 37.0306C152.668 37.0306 152.779 37.075 152.867 37.1639C152.956 37.2528 153 37.3639 153 37.4972V39.0304C153 39.1638 152.956 39.2749 152.867 39.3638C152.779 39.4526 152.668 39.4971 152.536 39.4971H149.221Z" fill="white"/>
</svg>
