<svg width="400" height="150" viewBox="0 0 400 150" fill="none" xmlns="http://www.w3.org/2000/svg">
<g filter="url(#filter0_d)">
<circle cx="111" cy="25" r="5" fill="black"/>
<path d="M46.624 104.008C43.792 104.008 41.176 103.312 38.776 101.92C36.376 100.528 34.48 98.632 33.088 96.232C31.696 93.784 31 91.144 31 88.312V78.016C31 75.184 31.696 72.568 33.088 70.168C34.48 67.72 36.376 65.8 38.776 64.408C41.176 63.016 43.792 62.32 46.624 62.32C49.456 62.32 52.072 63.016 54.472 64.408C56.872 65.8 58.768 67.72 60.16 70.168C61.552 72.568 62.248 75.184 62.248 78.016V82.912C62.248 83.632 61.984 84.256 61.456 84.784C60.976 85.264 60.376 85.504 59.656 85.504H36.616V88.672C36.616 90.496 37.048 92.176 37.912 93.712C38.824 95.248 40.048 96.472 41.584 97.384C43.12 98.248 44.8 98.68 46.624 98.68H57.064C57.352 98.68 57.592 98.776 57.784 98.968C57.976 99.16 58.072 99.4 58.072 99.688V103C58.072 103.288 57.976 103.528 57.784 103.72C57.592 103.912 57.352 104.008 57.064 104.008H46.624ZM56.632 80.32V77.656C56.632 75.832 56.176 74.152 55.264 72.616C54.4 71.08 53.2 69.88 51.664 69.016C50.128 68.104 48.448 67.648 46.624 67.648C44.8 67.648 43.12 68.104 41.584 69.016C40.048 69.88 38.824 71.08 37.912 72.616C37.048 74.152 36.616 75.832 36.616 77.656V80.32H56.632Z" fill="black"/>
<path d="M86.7021 104.944C83.8701 104.944 81.2541 104.248 78.8541 102.856C76.4541 101.464 74.5581 99.568 73.1661 97.168C71.7741 94.72 71.0781 92.08 71.0781 89.248V78.016C71.0781 75.184 71.7741 72.568 73.1661 70.168C74.5581 67.72 76.4541 65.8 78.8541 64.408C81.2541 63.016 83.8701 62.32 86.7021 62.32C88.7661 62.32 90.7101 62.704 92.5341 63.472C94.4061 64.24 96.0381 65.296 97.4301 66.64C97.7181 66.928 97.8621 67.264 97.8621 67.648C97.8621 67.984 97.7181 68.344 97.4301 68.728C96.9501 69.256 96.3981 69.808 95.7741 70.384C95.4381 70.672 95.0781 70.816 94.6941 70.816C94.2621 70.816 93.8781 70.648 93.5421 70.312C91.6221 68.536 89.3421 67.648 86.7021 67.648C84.8781 67.648 83.1981 68.104 81.6621 69.016C80.1261 69.88 78.9021 71.08 77.9901 72.616C77.1261 74.152 76.6941 75.832 76.6941 77.656V89.608C76.6941 91.432 77.1261 93.112 77.9901 94.648C78.9021 96.184 80.1261 97.408 81.6621 98.32C83.1981 99.184 84.8781 99.616 86.7021 99.616C89.3421 99.616 91.6221 98.728 93.5421 96.952C93.8781 96.616 94.2621 96.448 94.6941 96.448C95.0781 96.448 95.4381 96.592 95.7741 96.88C96.3501 97.36 96.9021 97.912 97.4301 98.536C97.7181 98.824 97.8621 99.184 97.8621 99.616C97.8621 100 97.7181 100.336 97.4301 100.624C96.0381 101.968 94.4061 103.024 92.5341 103.792C90.7101 104.56 88.7661 104.944 86.7021 104.944Z" fill="black"/>
<path d="M109.324 104.008C109.036 104.008 108.796 103.912 108.604 103.72C108.412 103.528 108.316 103.288 108.316 103V29.008C108.316 28.72 108.412 28.48 108.604 28.288C108.796 28.096 109.036 28 109.324 28H112.924C113.212 28 113.452 28.096 113.644 28.288C113.836 28.48 113.932 28.72 113.932 29.008V68.296C115.18 66.328 116.788 64.84 118.756 63.832C120.772 62.824 123.028 62.32 125.524 62.32C129.604 62.32 132.892 63.568 135.388 66.064C137.932 68.56 139.204 71.848 139.204 75.928V103C139.204 103.288 139.108 103.528 138.916 103.72C138.724 103.912 138.484 104.008 138.196 104.008H134.596C134.308 104.008 134.068 103.912 133.876 103.72C133.684 103.528 133.588 103.288 133.588 103V77.008C133.588 73.936 132.772 71.608 131.14 70.024C129.556 68.392 127.396 67.576 124.66 67.576C121.444 67.576 118.852 68.632 116.884 70.744C114.916 72.856 113.932 75.76 113.932 79.456V103C113.932 103.288 113.836 103.528 113.644 103.72C113.452 103.912 113.212 104.008 112.924 104.008H109.324Z" fill="black"/>
<path d="M176.82 85.008C176.82 90.8622 175.012 96.0687 172.205 99.7576C169.399 103.445 165.705 105.508 161.82 105.508C157.935 105.508 154.241 103.445 151.435 99.7576C148.628 96.0687 146.82 90.8622 146.82 85.008C146.82 79.1538 148.628 73.9473 151.435 70.2583C154.241 66.5713 157.935 64.508 161.82 64.508C165.705 64.508 169.399 66.5713 172.205 70.2583C175.012 73.9473 176.82 79.1538 176.82 85.008Z" stroke="black" stroke-opacity="0.81" stroke-width="5"/>
<path d="M215.82 81.508C215.82 99.7864 204.315 113.508 191.32 113.508C178.325 113.508 166.82 99.7864 166.82 81.508C166.82 63.2296 178.325 49.508 191.32 49.508C204.315 49.508 215.82 63.2296 215.82 81.508Z" stroke="#434343" stroke-opacity="0.74" stroke-width="5"/>
<path d="M251.82 81.008C251.82 93.5593 248.406 104.81 243.017 112.85C237.618 120.907 230.429 125.508 222.82 125.508C215.211 125.508 208.023 120.907 202.623 112.85C197.234 104.81 193.82 93.5593 193.82 81.008C193.82 68.4567 197.234 57.2062 202.623 49.1658C208.023 41.1092 215.211 36.508 222.82 36.508C230.429 36.508 237.618 41.1092 243.017 49.1658C248.406 57.2062 251.82 68.4567 251.82 81.008Z" stroke="#6B6B6B" stroke-opacity="0.61" stroke-width="5"/>
<path d="M111 21.0589C112 20.559 115.115 23.3723 114 24.4875C112.885 25.6028 113.241 22.2683 111 21.0589Z" fill="white"/>
<path d="M261.488 104.928C261.2 104.928 260.96 104.832 260.768 104.64C260.576 104.448 260.48 104.208 260.48 103.92V65.256C260.48 64.968 260.576 64.728 260.768 64.536C260.96 64.344 261.2 64.248 261.488 64.248H265.088C265.376 64.248 265.616 64.344 265.808 64.536C266 64.728 266.096 64.968 266.096 65.256V69.216C267.344 67.248 268.952 65.76 270.92 64.752C272.936 63.744 275.192 63.24 277.688 63.24C281.768 63.24 285.056 64.488 287.552 66.984C290.096 69.48 291.368 72.768 291.368 76.848V103.92C291.368 104.208 291.272 104.448 291.08 104.64C290.888 104.832 290.648 104.928 290.36 104.928H286.76C286.472 104.928 286.232 104.832 286.04 104.64C285.848 104.448 285.752 104.208 285.752 103.92V77.928C285.752 74.856 284.936 72.528 283.304 70.944C281.72 69.312 279.56 68.496 276.824 68.496C273.608 68.496 271.016 69.552 269.048 71.664C267.08 73.776 266.096 76.68 266.096 80.376V103.92C266.096 104.208 266 104.448 265.808 104.64C265.616 104.832 265.376 104.928 265.088 104.928H261.488Z" fill="black"/>
<path d="M317.406 105C314.574 105 311.958 104.304 309.558 102.912C307.158 101.52 305.262 99.624 303.87 97.224C302.478 94.776 301.782 92.136 301.782 89.304V79.008C301.782 76.176 302.478 73.56 303.87 71.16C305.262 68.712 307.158 66.792 309.558 65.4C311.958 64.008 314.574 63.312 317.406 63.312C320.238 63.312 322.854 64.008 325.254 65.4C327.654 66.792 329.55 68.712 330.942 71.16C332.334 73.56 333.03 76.176 333.03 79.008V83.904C333.03 84.624 332.766 85.248 332.238 85.776C331.758 86.256 331.158 86.496 330.438 86.496H307.398V89.664C307.398 91.488 307.83 93.168 308.694 94.704C309.606 96.24 310.83 97.464 312.366 98.376C313.902 99.24 315.582 99.672 317.406 99.672H327.846C328.134 99.672 328.374 99.768 328.566 99.96C328.758 100.152 328.854 100.392 328.854 100.68V103.992C328.854 104.28 328.758 104.52 328.566 104.712C328.374 104.904 328.134 105 327.846 105H317.406ZM327.414 81.312V78.648C327.414 76.824 326.958 75.144 326.046 73.608C325.182 72.072 323.982 70.872 322.446 70.008C320.91 69.096 319.23 68.64 317.406 68.64C315.582 68.64 313.902 69.096 312.366 70.008C310.83 70.872 309.606 72.072 308.694 73.608C307.83 75.144 307.398 76.824 307.398 78.648V81.312H327.414Z" fill="black"/>
<path d="M356.556 105C353.1 105 350.388 103.968 348.42 101.904C346.452 99.792 345.468 97.152 345.468 93.984V69.504H340.716C340.428 69.504 340.188 69.408 339.996 69.216C339.804 69.024 339.708 68.784 339.708 68.496V65.256C339.708 64.968 339.804 64.728 339.996 64.536C340.188 64.344 340.428 64.248 340.716 64.248H345.468V56.688C345.468 56.4 345.564 56.16 345.756 55.968C345.948 55.776 346.188 55.68 346.476 55.68H350.076C350.364 55.68 350.604 55.776 350.796 55.968C350.988 56.16 351.084 56.4 351.084 56.688V64.248H363.756C364.044 64.248 364.284 64.344 364.476 64.536C364.668 64.728 364.764 64.968 364.764 65.256V68.568C364.764 68.856 364.668 69.096 364.476 69.288C364.284 69.48 364.044 69.576 363.756 69.576H351.084V93.336C351.084 95.208 351.636 96.72 352.74 97.872C353.892 98.976 355.38 99.552 357.204 99.6L363.756 99.672C364.044 99.672 364.284 99.768 364.476 99.96C364.668 100.152 364.764 100.392 364.764 100.68V103.992C364.764 104.28 364.668 104.52 364.476 104.712C364.284 104.904 364.044 105 363.756 105H356.556Z" fill="black"/>
</g>
<defs>
<filter id="filter0_d" x="-4" y="0" width="408" height="158" filterUnits="userSpaceOnUse" color-interpolation-filters="sRGB">
<feFlood flood-opacity="0" result="BackgroundImageFix"/>
<feColorMatrix in="SourceAlpha" type="matrix" values="0 0 0 0 0 0 0 0 0 0 0 0 0 0 0 0 0 0 127 0"/>
<feOffset dy="4"/>
<feGaussianBlur stdDeviation="2"/>
<feColorMatrix type="matrix" values="0 0 0 0 0 0 0 0 0 0 0 0 0 0 0 0 0 0 0.25 0"/>
<feBlend mode="normal" in2="BackgroundImageFix" result="effect1_dropShadow"/>
<feBlend mode="normal" in="SourceGraphic" in2="effect1_dropShadow" result="shape"/>
</filter>
</defs>
</svg>
