<svg width="350" height="98" viewBox="0 0 350 98" fill="none" xmlns="http://www.w3.org/2000/svg">
<rect width="350" height="98" fill="white"/>
<g filter="url(#filter0_d)">
<path d="M40.8385 68.024C38.3212 68.024 35.9745 67.6827 33.7985 67C31.6652 66.2747 29.7878 65.208 28.1665 63.8C26.5878 62.392 25.3292 60.6213 24.3905 58.488C23.4945 56.3547 23.0465 53.8587 23.0465 51C23.0465 48.184 23.4945 45.7733 24.3905 43.768C25.3292 41.72 26.5452 40.056 28.0385 38.776C29.5318 37.4533 31.2385 36.4933 33.1585 35.896C35.0785 35.256 37.0412 34.936 39.0465 34.936C41.3078 34.936 43.3558 35.2773 45.1905 35.96C47.0678 36.6427 48.6678 37.5813 49.9905 38.776C51.3558 39.9707 52.4012 41.4 53.1265 43.064C53.8945 44.728 54.2785 46.5413 54.2785 48.504C54.2785 49.9547 53.8732 51.064 53.0625 51.832C52.2518 52.6 51.1212 53.0907 49.6705 53.304L33.8625 55.672C34.3318 57.08 35.2918 58.1467 36.7425 58.872C38.1932 59.5547 39.8572 59.896 41.7345 59.896C43.4838 59.896 45.1265 59.6827 46.6625 59.256C48.2412 58.7867 49.5212 58.2533 50.5025 57.656C51.1852 58.0827 51.7612 58.68 52.2305 59.448C52.6998 60.216 52.9345 61.0267 52.9345 61.88C52.9345 63.8 52.0385 65.2293 50.2465 66.168C48.8812 66.8933 47.3452 67.384 45.6385 67.64C43.9318 67.896 42.3318 68.024 40.8385 68.024ZM39.0465 42.872C38.0225 42.872 37.1265 43.0427 36.3585 43.384C35.6332 43.7253 35.0358 44.1733 34.5665 44.728C34.0972 45.24 33.7345 45.8373 33.4785 46.52C33.2652 47.16 33.1372 47.8213 33.0945 48.504L44.0385 46.712C43.9105 45.8587 43.4412 45.0053 42.6305 44.152C41.8198 43.2987 40.6252 42.872 39.0465 42.872ZM77.0515 43.512C75.9848 43.512 74.9608 43.6827 73.9795 44.024C73.0408 44.3653 72.2088 44.8773 71.4835 45.56C70.8008 46.2 70.2462 47.0107 69.8195 47.992C69.3928 48.9733 69.1795 50.1253 69.1795 51.448C69.1795 54.0933 69.9262 56.0773 71.4195 57.4C72.9555 58.7227 74.8115 59.384 76.9875 59.384C78.2675 59.384 79.3768 59.2347 80.3155 58.936C81.2542 58.6373 82.0862 58.3173 82.8115 57.976C83.6648 58.5733 84.3048 59.2347 84.7315 59.96C85.1582 60.6427 85.3715 61.4747 85.3715 62.456C85.3715 64.2053 84.5395 65.5707 82.8755 66.552C81.2115 67.4907 78.9075 67.96 75.9635 67.96C73.2755 67.96 70.8435 67.576 68.6675 66.808C66.4915 65.9973 64.6142 64.888 63.0355 63.48C61.4995 62.0293 60.3048 60.3013 59.4515 58.296C58.5982 56.2907 58.1715 54.072 58.1715 51.64C58.1715 48.824 58.6195 46.3707 59.5155 44.28C60.4542 42.1467 61.7128 40.3973 63.2915 39.032C64.8702 37.6667 66.6835 36.6427 68.7315 35.96C70.8222 35.2773 73.0195 34.936 75.3235 34.936C78.3955 34.936 80.7635 35.4907 82.4275 36.6C84.0915 37.7093 84.9235 39.1387 84.9235 40.888C84.9235 41.6987 84.7315 42.4667 84.3475 43.192C83.9635 43.8747 83.5155 44.472 83.0035 44.984C82.2782 44.6427 81.4035 44.3227 80.3795 44.024C79.3555 43.6827 78.2462 43.512 77.0515 43.512ZM121.548 66.936C121.121 67.064 120.439 67.192 119.5 67.32C118.604 67.448 117.665 67.512 116.684 67.512C115.745 67.512 114.892 67.448 114.124 67.32C113.399 67.192 112.78 66.936 112.268 66.552C111.756 66.168 111.351 65.656 111.052 65.016C110.796 64.3333 110.668 63.4587 110.668 62.392V48.184C110.668 46.4347 110.22 45.2187 109.324 44.536C108.471 43.8107 107.404 43.448 106.124 43.448C105.271 43.448 104.46 43.5547 103.692 43.768C102.924 43.9813 102.305 44.2373 101.836 44.536V66.936C101.409 67.064 100.727 67.192 99.788 67.32C98.892 67.448 97.9533 67.512 96.972 67.512C96.0333 67.512 95.18 67.448 94.412 67.32C93.6867 67.192 93.068 66.936 92.556 66.552C92.044 66.168 91.6387 65.656 91.34 65.016C91.084 64.3333 90.956 63.4587 90.956 62.392V25.272C91.4253 25.1867 92.108 25.08 93.004 24.952C93.9427 24.7813 94.8813 24.696 95.82 24.696C96.7587 24.696 97.5907 24.76 98.316 24.888C99.084 25.016 99.724 25.272 100.236 25.656C100.748 26.04 101.132 26.5733 101.388 27.256C101.687 27.896 101.836 28.7493 101.836 29.816V36.088C102.391 35.8747 103.223 35.64 104.332 35.384C105.484 35.0853 106.743 34.936 108.108 34.936C112.332 34.936 115.617 36.0027 117.964 38.136C120.353 40.2267 121.548 43.3627 121.548 47.544V66.936Z" fill="#3E3E3E"/>
</g>
<g filter="url(#filter1_d)">
<path d="M253.509 47.288C253.509 45.9653 253.125 45.0053 252.357 44.408C251.631 43.768 250.629 43.448 249.349 43.448C248.495 43.448 247.642 43.5547 246.789 43.768C245.978 43.9813 245.274 44.3013 244.677 44.728V66.936C244.25 67.064 243.567 67.192 242.629 67.32C241.733 67.448 240.794 67.512 239.813 67.512C238.874 67.512 238.021 67.448 237.253 67.32C236.527 67.192 235.909 66.936 235.397 66.552C234.885 66.168 234.479 65.656 234.181 65.016C233.925 64.3333 233.797 63.4587 233.797 62.392V43.192C233.797 42.04 234.031 41.1013 234.501 40.376C235.013 39.6507 235.695 38.9893 236.549 38.392C237.999 37.368 239.813 36.536 241.989 35.896C244.207 35.256 246.661 34.936 249.349 34.936C254.17 34.936 257.882 36.0027 260.485 38.136C263.087 40.2267 264.389 43.1493 264.389 46.904V66.936C263.962 67.064 263.279 67.192 262.341 67.32C261.445 67.448 260.506 67.512 259.525 67.512C258.586 67.512 257.733 67.448 256.965 67.32C256.239 67.192 255.621 66.936 255.109 66.552C254.597 66.168 254.191 65.656 253.893 65.016C253.637 64.3333 253.509 63.4587 253.509 62.392V47.288ZM287.557 68.024C285.04 68.024 282.693 67.6827 280.517 67C278.384 66.2747 276.507 65.208 274.885 63.8C273.307 62.392 272.048 60.6213 271.109 58.488C270.213 56.3547 269.765 53.8587 269.765 51C269.765 48.184 270.213 45.7733 271.109 43.768C272.048 41.72 273.264 40.056 274.757 38.776C276.251 37.4533 277.957 36.4933 279.877 35.896C281.797 35.256 283.76 34.936 285.765 34.936C288.027 34.936 290.075 35.2773 291.909 35.96C293.787 36.6427 295.387 37.5813 296.709 38.776C298.075 39.9707 299.12 41.4 299.845 43.064C300.613 44.728 300.997 46.5413 300.997 48.504C300.997 49.9547 300.592 51.064 299.781 51.832C298.971 52.6 297.84 53.0907 296.389 53.304L280.581 55.672C281.051 57.08 282.011 58.1467 283.461 58.872C284.912 59.5547 286.576 59.896 288.453 59.896C290.203 59.896 291.845 59.6827 293.381 59.256C294.96 58.7867 296.24 58.2533 297.221 57.656C297.904 58.0827 298.48 58.68 298.949 59.448C299.419 60.216 299.653 61.0267 299.653 61.88C299.653 63.8 298.757 65.2293 296.965 66.168C295.6 66.8933 294.064 67.384 292.357 67.64C290.651 67.896 289.051 68.024 287.557 68.024ZM285.765 42.872C284.741 42.872 283.845 43.0427 283.077 43.384C282.352 43.7253 281.755 44.1733 281.285 44.728C280.816 45.24 280.453 45.8373 280.197 46.52C279.984 47.16 279.856 47.8213 279.813 48.504L290.757 46.712C290.629 45.8587 290.16 45.0053 289.349 44.152C288.539 43.2987 287.344 42.872 285.765 42.872ZM317.114 56.312C317.114 57.4213 317.456 58.2107 318.138 58.68C318.864 59.1493 319.866 59.384 321.146 59.384C321.786 59.384 322.448 59.3413 323.13 59.256C323.813 59.128 324.41 58.9787 324.922 58.808C325.306 59.2773 325.626 59.8107 325.882 60.408C326.181 60.9627 326.33 61.6453 326.33 62.456C326.33 64.0773 325.712 65.4 324.474 66.424C323.28 67.448 321.146 67.96 318.074 67.96C314.32 67.96 311.418 67.1067 309.37 65.4C307.365 63.6933 306.362 60.92 306.362 57.08V29.688C306.832 29.56 307.493 29.432 308.346 29.304C309.242 29.1333 310.181 29.048 311.162 29.048C313.04 29.048 314.49 29.3893 315.514 30.072C316.581 30.712 317.114 32.0987 317.114 34.232V38.328H325.498C325.754 38.7973 325.989 39.3947 326.202 40.12C326.458 40.8027 326.586 41.5707 326.586 42.424C326.586 43.9173 326.245 45.0053 325.562 45.688C324.922 46.328 324.048 46.648 322.938 46.648H317.114V56.312Z" fill="#3E3E3E"/>
</g>
<g filter="url(#filter2_d)">
<path d="M153 51C153 57.7692 147.712 63 141.5 63C135.288 63 130 57.7692 130 51C130 44.2308 135.288 39 141.5 39C147.712 39 153 44.2308 153 51Z" stroke="#2C2C2C" stroke-opacity="0.81" stroke-width="10"/>
</g>
<g filter="url(#filter3_d)">
<path d="M185 49.5C185 61.8518 176.039 71 166 71C155.961 71 147 61.8518 147 49.5C147 37.1482 155.961 28 166 28C176.039 28 185 37.1482 185 49.5Z" stroke="#434343" stroke-opacity="0.74" stroke-width="10"/>
</g>
<g filter="url(#filter4_d)">
<path d="M225 49C225 64.8422 213.22 77 199.5 77C185.78 77 174 64.8422 174 49C174 33.1578 185.78 21 199.5 21C213.22 21 225 33.1578 225 49Z" stroke="#6B6B6B" stroke-opacity="0.61" stroke-width="10"/>
</g>
<defs>
<filter id="filter0_d" x="19.0465" y="24.696" width="106.502" height="51.328" filterUnits="userSpaceOnUse" color-interpolation-filters="sRGB">
<feFlood flood-opacity="0" result="BackgroundImageFix"/>
<feColorMatrix in="SourceAlpha" type="matrix" values="0 0 0 0 0 0 0 0 0 0 0 0 0 0 0 0 0 0 127 0"/>
<feOffset dy="4"/>
<feGaussianBlur stdDeviation="2"/>
<feColorMatrix type="matrix" values="0 0 0 0 0 0 0 0 0 0 0 0 0 0 0 0 0 0 0.25 0"/>
<feBlend mode="normal" in2="BackgroundImageFix" result="effect1_dropShadow"/>
<feBlend mode="normal" in="SourceGraphic" in2="effect1_dropShadow" result="shape"/>
</filter>
<filter id="filter1_d" x="229.797" y="29.048" width="100.789" height="46.976" filterUnits="userSpaceOnUse" color-interpolation-filters="sRGB">
<feFlood flood-opacity="0" result="BackgroundImageFix"/>
<feColorMatrix in="SourceAlpha" type="matrix" values="0 0 0 0 0 0 0 0 0 0 0 0 0 0 0 0 0 0 127 0"/>
<feOffset dy="4"/>
<feGaussianBlur stdDeviation="2"/>
<feColorMatrix type="matrix" values="0 0 0 0 0 0 0 0 0 0 0 0 0 0 0 0 0 0 0.25 0"/>
<feBlend mode="normal" in2="BackgroundImageFix" result="effect1_dropShadow"/>
<feBlend mode="normal" in="SourceGraphic" in2="effect1_dropShadow" result="shape"/>
</filter>
<filter id="filter2_d" x="121" y="34" width="41" height="42" filterUnits="userSpaceOnUse" color-interpolation-filters="sRGB">
<feFlood flood-opacity="0" result="BackgroundImageFix"/>
<feColorMatrix in="SourceAlpha" type="matrix" values="0 0 0 0 0 0 0 0 0 0 0 0 0 0 0 0 0 0 127 0"/>
<feOffset dy="4"/>
<feGaussianBlur stdDeviation="2"/>
<feColorMatrix type="matrix" values="0 0 0 0 0 0 0 0 0 0 0 0 0 0 0 0 0 0 0.25 0"/>
<feBlend mode="normal" in2="BackgroundImageFix" result="effect1_dropShadow"/>
<feBlend mode="normal" in="SourceGraphic" in2="effect1_dropShadow" result="shape"/>
</filter>
<filter id="filter3_d" x="138" y="23" width="56" height="61" filterUnits="userSpaceOnUse" color-interpolation-filters="sRGB">
<feFlood flood-opacity="0" result="BackgroundImageFix"/>
<feColorMatrix in="SourceAlpha" type="matrix" values="0 0 0 0 0 0 0 0 0 0 0 0 0 0 0 0 0 0 127 0"/>
<feOffset dy="4"/>
<feGaussianBlur stdDeviation="2"/>
<feColorMatrix type="matrix" values="0 0 0 0 0 0 0 0 0 0 0 0 0 0 0 0 0 0 0.25 0"/>
<feBlend mode="normal" in2="BackgroundImageFix" result="effect1_dropShadow"/>
<feBlend mode="normal" in="SourceGraphic" in2="effect1_dropShadow" result="shape"/>
</filter>
<filter id="filter4_d" x="165" y="16" width="69" height="74" filterUnits="userSpaceOnUse" color-interpolation-filters="sRGB">
<feFlood flood-opacity="0" result="BackgroundImageFix"/>
<feColorMatrix in="SourceAlpha" type="matrix" values="0 0 0 0 0 0 0 0 0 0 0 0 0 0 0 0 0 0 127 0"/>
<feOffset dy="4"/>
<feGaussianBlur stdDeviation="2"/>
<feColorMatrix type="matrix" values="0 0 0 0 0 0 0 0 0 0 0 0 0 0 0 0 0 0 0.25 0"/>
<feBlend mode="normal" in2="BackgroundImageFix" result="effect1_dropShadow"/>
<feBlend mode="normal" in="SourceGraphic" in2="effect1_dropShadow" result="shape"/>
</filter>
</defs>
</svg>
